<svg width="438.7200073242187" height="146.82556858765733" viewBox="0 0 369.6626506024096 123.71427779496915" class="looka-1j8o68f"><defs id="SvgjsDefs1011"></defs><g id="SvgjsG1012" featurekey="JKiIdh-0" transform="matrix(2.5773807873951906,0,0,2.5773807873951906,-26.131918625159226,-6.4434519684879765)" fill="#0092ca"><g xmlns="http://www.w3.org/2000/svg"><path d="M13.8592577,20.9689751c0.7055063-0.7609768,1.0239973-0.7590008,3.6845789-2.3509445v-2.5832691L12.0587454,19.20158   c-1.0474958,0.6144352-1.9289017,2.1413555-1.9197311,3.3320179c0.0040121,1.842926,0.0479555,21.875597,0.0519676,23.7199879   c0,0.470253,0.1334848,0.8131371,0.3678465,0.942543l1.858593,1.0831604   c-0.0073872-0.1050148-0.0838099-23.9428883,0.0030575-24.4689274   C12.5072184,23.0630131,13.0624266,21.7738304,13.8592577,20.9689751z"></path><path d="M27.8571701,48.4505424c-1.1870956,0.6794586-3.0330791,0.6831512-4.2331657,0.0085945   c-0.4099426-0.2501564-0.1394062-0.0852737-2.3704319-1.9781303l-0.8433857,0.4909515   c3.6686592,3.1368217,3.4639111,3.0104713,3.7171879,3.1460571c0.8844624,0.5110092,2.3476963,0.5074425,3.2036266,0.0005074   l7.3691597-4.2776146c0.3199539-0.1818886,0.5043869-0.4091148,0.5094833-0.6251373v-1.0311928l-7.3406277,4.2608032   C27.8653851,48.4474831,27.8607998,48.4484406,27.8571701,48.4505424z"></path><path d="M41.0024643,5.079226l-1.8473854-1.0699139C39.058342,3.9523776,38.9349823,3.935055,38.7994614,3.94136v2.4072423   l2.0684967-1.1970296C40.9148331,5.1250796,40.9596672,5.1011338,41.0024643,5.079226z"></path><path d="M32.1072769,34.0043488c-0.0085335,0.0049667-0.0186615,0.0107613-0.0297432,0.0171928   c0.5366783-0.3100204,2.0209923-1.1674156,5.6785049-3.2801762V2.9546828   c-0.0017204-0.4312773-0.1603584-0.582721-0.5848846-0.3367682L19.6846848,12.713316   c-0.5859051,0.3382969-1.0994644,1.2309103-1.0974274,1.9095421c-0.0000629-0.1185188,0.0030575,27.0728321,0.0030575,27.1893139   C29.5369987,35.4889793,31.8378868,34.1599312,32.1072769,34.0043488z M35.6865196,28.6805077l-14.5864925,8.4217491   c-0.251112,0.1441193-0.5702381,0.0575104-0.7122574-0.1910553c-0.1446915-0.2496452-0.0590992-0.5685844,0.1905479-0.7127647   l14.5864925-8.4217529c0.2496452-0.1441822,0.5685806-0.0601177,0.7122574,0.1910572   C36.021759,28.2173862,35.9361649,28.5363235,35.6865196,28.6805077z M35.6865196,23.8078136l-14.5864925,8.421751   c-0.251112,0.1441193-0.5702381,0.0575066-0.7122574-0.1910553c-0.1446915-0.2496471-0.0590992-0.5685844,0.1905479-0.7127686   l14.5864925-8.4217491c0.2496452-0.1431656,0.5685806-0.0596104,0.7122574,0.1910553   C36.021759,23.3446941,35.9361649,23.6636295,35.6865196,23.8078136z M35.6865196,18.9351196l-14.5864925,8.421751   c-0.251112,0.1441193-0.5702381,0.0575085-0.7122574-0.1910553c-0.1446915-0.2496471-0.0590992-0.5685844,0.1905479-0.7127666   l14.5864925-8.421751c0.2496452-0.1436749,0.5685806-0.0601196,0.7122574,0.1910553   C36.021759,18.4720001,35.9361649,18.7909355,35.6865196,18.9351196z M26.9978008,13.001174l8.1670094-4.7152634   c0.2496452-0.1441832,0.5685806-0.0601187,0.7122574,0.1910563c0.1446915,0.2496462,0.0590973,0.5685825-0.1905479,0.7127666   l-8.1670094,4.7152634c-0.251112,0.1441193-0.5702381,0.0575075-0.7122574-0.1910563   C26.6625614,13.4642935,26.7481537,13.1453581,26.9978008,13.001174z M26.9978008,17.873867l8.1670094-4.7152624   c0.2496452-0.1441841,0.5685806-0.0601196,0.7122574,0.1910553c0.1446915,0.2496471,0.0590973,0.5685835-0.1905479,0.7127666   l-8.1670094,4.7152624c-0.251112,0.1441212-0.5702381,0.0575085-0.7122574-0.1910553   C26.6625614,18.3369865,26.7481537,18.0180511,26.9978008,17.873867z M20.7912807,16.8961697l1.543478,0.2336617   l-0.0272579-2.2812729c-0.0030556-0.287858,0.2272301-0.5242577,0.5155964-0.5278244   c0.2751217-0.0264931,0.5247688,0.2267199,0.5278244,0.5155973l0.0166855,1.3965559l1.1551266-1.5004911   c0.176281-0.2282476,0.5033684-0.2710447,0.731617-0.0947638c0.2282486,0.1757717,0.2710438,0.5033693,0.0957813,0.7316179   l-1.5286388,1.9856443l1.1933994,0.1806755c0.2842922,0.0427971,0.4809532,0.3087463,0.4371376,0.5935478   c-0.0387211,0.2583084-0.2608566,0.4437599-0.5145779,0.4437599c-0.0264931,0-0.0529861-0.002037-0.0794792-0.0061131   l-1.4651451-0.221817l0.0263653,2.2103271c0.0030575,0.287859-0.2272301,0.5242577-0.5155964,0.5278244   c-0.002039,0-0.004076,0-0.006115,0c-0.2853088,0-0.518652-0.2292671-0.5217094-0.5155964l-0.015667-1.3142738l-1.1306686,1.468647   c-0.1757717,0.227993-0.5041332,0.2709179-0.7316189,0.0947647c-0.2282467-0.1757717-0.2710438-0.5033703-0.0957813-0.7316189   l1.5119534-1.9639282l-1.2796307-0.1937313c-0.2842903-0.0427952-0.4809513-0.3087463-0.4371357-0.5935459   C20.2400208,17.0485058,20.5090275,16.8487873,20.7912807,16.8961697z"></path><path d="M27.3462868,47.5420685l7.3640633-4.2837296c0.8258705-0.4809532,0.5633621-1.0829697-0.3189354-1.3975105   l-3.0721817-1.1916809l-9.1052208,5.2607269c0.6180019,0.5286522,1.4390965,1.209259,1.9215145,1.6091385   C25.0890865,48.0750504,26.530159,48.0120659,27.3462868,47.5420685z"></path><path d="M42.8080711,6.8664918c-0.0124207-0.8489256-0.4263115-1.2530732-1.2105331-0.9104457   c-0.3477211,0.180675-1.1873474,0.6764655-2.7960396,1.5967188v1.9466066l1.5345612-0.8843346   c0.1609955-0.0927258,0.360714-0.0927258,0.5217094,0c0.1609993,0.0927258,0.2608566,0.2644215,0.2608566,0.4503822   l0.0519676,20.6075592c0,0.1869812-0.0988388,0.3602047-0.2608566,0.4534397   c-12.3285275,7.1277275-12.5761356,7.2654152-24.9799404,14.4300804c-0.1625252,0.0946388-0.3617334,0.0925369-0.5206919,0.0010185   c-0.162015-0.093235-0.2618742-0.2649307-0.2618742-0.4508896l-0.0519667-20.6075611   c0-0.1869812,0.0988398-0.3596954,0.2598362-0.4529305l2.1887369-1.2672119v-1.9555225   c-2.1936407,1.3113461-2.3752718,1.2668304-2.9315634,1.8690376c-0.6342421,0.634243-1.0871725,1.6828861-1.1595821,2.264143   c-0.0669975,0.4233799-0.0301876-1.0282001,0.0040751,24.1958485c0,0.9295502,0.5262957,1.3275185,1.4163628,0.8029442   l26.0569859-15.0480843c1.0485191-0.5955849,1.9309425-2.1179199,1.9309425-3.3248844L42.8080711,6.8664918z    M29.1671772,39.4667664l-1.4958401,0.8640823c-0.2507305,0.1439285-0.5684566,0.0580177-0.7122574-0.1910553   c-0.1446934-0.2491379-0.0591011-0.5685806,0.190546-0.7127647l1.495842-0.8640823   c0.2496471-0.1431656,0.567564-0.0596123,0.7122574,0.1910553C29.5024166,39.0031395,29.4168243,39.3225822,29.1671772,39.4667664z   "></path></g></g><g id="SvgjsG1013" featurekey="A7DQL5-0" transform="matrix(4.2587765885558095,0,0,4.2587765885558095,104.00000050768573,10.94278823927997)" fill="#393e46"><path d="M0.56 14.16 l0 -9.36 l4.8 0 l0 -0.56 l-5.36 0 l0 9.92 l0.56 0 z M5.56 20 l0 -0.54 l-5 0 l0 -4.14 l0.8 0 l0 -0.54 l-1.36 0 l0 5.22 l5.56 0 z M8.84 13.96 l0 -9.72 l-0.68 0 l0 15.76 l0.68 0 l0 -5.4 l0 -0.64 z M9.120000000000001 14.6 l5.84 0 l0 5.4 l0.68 0 l0 -11.62 l-0.68 0 l0 5.58 l-5.84 0 l0 0.64 z M22.64 15.219999999999999 c0.85334 -0.48 1.5067 -1.1567 1.96 -2.03 s0.68 -1.8633 0.68 -2.97 l0 -0.28 c0 -1.64 -0.49 -3 -1.47 -4.08 s-2.3766 -1.62 -4.19 -1.62 l-1.38 0 l0 6.34 c0.22666 0.01334 0.45332 0.02 0.67998 0.02 l0 -5.72 l0.66 0 c1.64 0 2.88 0.47666 3.72 1.43 s1.26 2.1766 1.26 3.67 l0 0.22 c0 1.48 -0.42 2.6934 -1.26 3.64 s-2.08 1.42 -3.72 1.42 l-0.66 0 l0 0 l-0.68 0 l0 0.64 c0.4 0.01334 0.66666 0.02 0.8 0.02 l0.58 0 c0.92 0 1.7267 -0.14 2.42 -0.42 l2.48 4.5 l0.8 0 z M33.6 13.96 l0 -9.72 l-0.68 0 l0 15.76 l0.68 0 l0 -5.4 l0 -0.64 z M33.88 14.6 l5.84 0 l0 5.4 l0.68 0 l0 -11.62 l-0.68 0 l0 5.58 l-5.84 0 l0 0.64 z M51.74 4.26 l0 10.64 c0 1.4 -0.37 2.48 -1.11 3.24 s-1.6233 1.1733 -2.65 1.24 l0 0.25 l0 0.07 l0 0.3 c1.28 -0.08 2.3066 -0.55334 3.08 -1.42 s1.16 -2.0934 1.16 -3.68 l0 -10.64 l-0.48 0 z M47.24 19.39998 c-1.04 -0.08 -1.9067 -0.5 -2.6 -1.26 s-1.04 -1.84 -1.04 -3.24 l0 -10.64 l-0.6 0 l0 10.64 c0 1.6 0.38334 2.83 1.15 3.69 s1.7967 1.33 3.09 1.41 l0 -0.29 l0 -0.31 z M54.82 10.94 l0.000039062 9.06 l3.84 0 c1.1467 0 2.0534 -0.40666 2.72 -1.22 s1 -1.8667 1 -3.16 c0 -0.34666 -0.04334 -0.74332 -0.13 -1.19 s-0.23332 -0.88 -0.43998 -1.3 s-0.48666 -0.8 -0.84 -1.14 s-0.81 -0.57666 -1.37 -0.71 c0.56 -0.34666 0.96666 -0.81 1.22 -1.39 s0.38 -1.19 0.38 -1.83 c0 -1.2267 -0.34 -2.17 -1.02 -2.83 s-1.6067 -0.99 -2.78 -0.99 l-2.58 0 l0 6.22 l0.7 0 l-0.02 -5.4 l1.96 0 c1.1067 0 1.8867 0.29 2.34 0.87 s0.68 1.29 0.68 2.13 c0 0.90666 -0.20666 1.61 -0.62 2.11 s-0.98 0.75 -1.7 0.75 l-2.62 0 l0.44 0.88 l2.68 0 c0.54666 0 1.0133 0.12334 1.4 0.37 s0.70332 0.55666 0.94998 0.93 s0.43 0.79334 0.55 1.26 s0.18 0.92 0.18 1.36 c0 0.42666 -0.06 0.84666 -0.18 1.26 s-0.3 0.78334 -0.54 1.11 s-0.55334 0.59 -0.94 0.79 s-0.84666 0.3 -1.38 0.3 l-3.2 0 l0.02 -8.24 l-0.7 0 z"></path></g></svg>